<svg width="5" height="7" viewBox="0 0 5 7" fill="none" xmlns="http://www.w3.org/2000/svg">
<path d="M0.688456 5.3558C0.455453 5.60499 0.40816 6.04669 0.721004 6.3255C0.99733 6.57177 1.39328 6.53527 1.63785 6.35363L1.65575 6.34034L4.2755 4.00555C4.33958 3.94844 4.40314 3.87215 4.4466 3.77144C4.48966 3.67166 4.50004 3.57781 4.50004 3.50481C4.50004 3.35473 4.44583 3.15588 4.2755 3.00407L1.6724 0.684121C1.42093 0.460005 0.989661 0.41257 0.70413 0.699646C0.409959 0.979095 0.459733 1.40921 0.688456 1.65382L0.704499 1.67098L2.77411 3.50481L0.704499 5.33864L0.688456 5.3558Z" fill="#61C100"/>
</svg>
