<svg width="10" height="6" viewBox="0 0 10 6" fill="none" xmlns="http://www.w3.org/2000/svg">
<path fill-rule="evenodd" clip-rule="evenodd" d="M9.69109 1.63863L5.63563 5.73757C5.26471 6.08748 4.72068 6.08748 4.34976 5.73757L0.319027 1.63863C-0.0518987 1.26372 -0.126084 0.763851 0.244842 0.388948L0.393213 0.238987C0.714682 -0.0359424 1.08561 -0.110923 1.38235 0.213993C2.37149 1.21374 3.38535 2.23847 4.37449 3.23821C4.74541 3.58812 5.28944 3.58812 5.63563 3.23821C6.6495 2.23847 7.63864 1.21374 8.62777 0.213993C8.92451 -0.110923 9.29544 -0.0359424 9.61691 0.238987L9.76528 0.388948C10.1362 0.763851 10.0373 1.26372 9.69109 1.63863Z" fill="#686868"/>
</svg>
