<svg width="25" height="24" viewBox="0 0 25 24" fill="none" xmlns="http://www.w3.org/2000/svg">
<path d="M19.3675 1.69412C19.0141 0.705882 18.0952 0 17.035 0H7.7046C6.64433 0 5.72543 0.705882 5.37201 1.69412L3.74627 6.70588H6.00817L7.49255 2.32941C7.42186 2.18823 7.56323 2.11765 7.7046 2.11765H16.9643C17.1056 2.11765 17.247 2.18823 17.3177 2.32941L18.8021 6.70588H21.064L19.3675 1.69412Z" fill="#61C100"/>
<path d="M24.0327 8.47059H0.706845C0.282738 8.47059 0 8.75294 0 9.17647V12.7059C0 13.1294 0.282738 13.4118 0.706845 13.4118H1.90848L3.32217 22.8C3.39285 23.5059 4.02901 24 4.73586 24H20.0037C20.7105 24 21.276 23.5059 21.4174 22.8L22.8311 13.4118H24.0327C24.4568 13.4118 24.7396 13.1294 24.7396 12.7059V9.17647C24.7396 8.75294 24.4568 8.47059 24.0327 8.47059ZM8.48214 20.1176C8.48214 20.6824 7.98734 21.1765 7.42187 21.1765C6.85639 21.1765 6.3616 20.6824 6.3616 20.1176V15.5294C6.3616 14.9647 6.85639 14.4706 7.42187 14.4706C7.98734 14.4706 8.48214 14.9647 8.48214 15.5294V20.1176ZM13.43 20.1176C13.43 20.6824 12.9353 21.1765 12.3698 21.1765C11.8043 21.1765 11.3095 20.6824 11.3095 20.1176V15.5294C11.3095 14.9647 11.8043 14.4706 12.3698 14.4706C12.9353 14.4706 13.43 14.9647 13.43 15.5294V20.1176ZM18.378 20.1176C18.378 20.6824 17.8832 21.1765 17.3177 21.1765C16.7522 21.1765 16.2574 20.6824 16.2574 20.1176V15.5294C16.2574 14.9647 16.7522 14.4706 17.3177 14.4706C17.8832 14.4706 18.378 14.9647 18.378 15.5294V20.1176Z" fill="#61C100"/>
</svg>
