<svg width="10" height="10" viewBox="0 0 10 10" fill="none" xmlns="http://www.w3.org/2000/svg">
<path fill-rule="evenodd" clip-rule="evenodd" d="M6.18451 5L9.76082 1.42369C10.0797 1.10478 10.0797 0.558087 9.76082 0.23918C9.44191 -0.0797267 8.89522 -0.0797267 8.57631 0.23918L5 3.81549L1.42369 0.23918C1.10478 -0.0797267 0.558087 -0.0797267 0.23918 0.23918C-0.0797267 0.558087 -0.0797267 1.10478 0.23918 1.42369L3.81549 5L0.23918 8.57631C-0.0797267 8.89522 -0.0797267 9.44191 0.23918 9.76082C0.558087 10.0797 1.10478 10.0797 1.42369 9.76082L5 6.18451L8.57631 9.76082C8.89522 10.0797 9.44191 10.0797 9.76082 9.76082C10.0797 9.44191 10.0797 8.89522 9.76082 8.57631L6.18451 5Z" fill="#676767"/>
</svg>
