<svg width="19" height="14" viewBox="0 0 19 14" fill="none" xmlns="http://www.w3.org/2000/svg">
<path d="M14.6558 9.92965C14.2739 9.92965 13.9397 10.2638 13.9397 10.6457C13.9397 11.0276 14.2739 11.3618 14.6558 11.3618C15.0377 11.3618 15.3719 11.0276 15.3719 10.6457C15.3719 10.2638 15.0377 9.92965 14.6558 9.92965ZM4.63065 9.92965C4.24874 9.92965 3.91457 10.2638 3.91457 10.6457C3.91457 11.0276 4.24874 11.3618 4.63065 11.3618C5.01256 11.3618 5.34673 11.0276 5.34673 10.6457C5.34673 10.2638 5.01256 9.92965 4.63065 9.92965ZM18.8568 5.72864L17.1859 1.24121C17.0427 0.859297 16.7085 0.620603 16.2789 0.620603H12.2211C11.696 0.620603 11.2663 1.05025 11.2663 1.57538V8.11558H10.0251V0.477387C10.0251 0.190955 9.83417 0 9.54774 0H0.477387C0.190955 0 0 0.190955 0 0.477387V10.5025C0 10.7889 0.190955 10.9799 0.477387 10.9799H1.28894C1.43216 12.6985 2.86432 13.9874 4.63065 13.9874C6.34925 13.9874 7.78141 12.6508 7.97236 10.9799H11.3618C11.505 12.6985 12.9372 13.9874 14.7035 13.9874C16.5653 13.9874 18.0452 12.5075 18.0452 10.6457C18.5704 10.6457 19 10.2161 19 9.69096V6.06281C18.9523 5.96734 18.9045 5.82412 18.8568 5.72864ZM4.63065 12.5553C3.5804 12.5553 2.72111 11.696 2.72111 10.6457C2.72111 9.59548 3.5804 8.73618 4.63065 8.73618C5.6809 8.73618 6.5402 9.59548 6.5402 10.6457C6.5402 11.696 5.6809 12.5553 4.63065 12.5553ZM14.6558 12.5553C13.6055 12.5553 12.7462 11.696 12.7462 10.6457C12.7462 9.59548 13.6055 8.73618 14.6558 8.73618C15.706 8.73618 16.5653 9.59548 16.5653 10.6457C16.5653 11.696 15.706 12.5553 14.6558 12.5553ZM16.6608 5.39447L12.9372 4.96482C12.794 4.96482 12.7462 4.86935 12.7462 4.72613V2.76884C12.7462 2.62563 12.8417 2.53015 12.9849 2.53015H15.897C15.9925 2.53015 16.0879 2.57789 16.1357 2.67337L16.8995 5.01256C16.9472 5.20352 16.8518 5.39447 16.6608 5.39447Z" fill="#61C100"/>
</svg>
