<svg width="24" height="25" viewBox="0 0 24 25" fill="none" xmlns="http://www.w3.org/2000/svg">
<path d="M8.30769 13.8614H0.307692C0.123077 13.8614 0 13.9851 0 14.1708C0.184615 16.3985 2.03077 18.1931 4.30769 18.1931C6.58462 18.1931 8.43077 16.3985 8.61538 14.1708C8.61538 13.9851 8.49231 13.8614 8.30769 13.8614ZM23.6923 13.8614H15.6923C15.5077 13.8614 15.3846 13.9851 15.3846 14.1708C15.5692 16.3985 17.4154 18.1931 19.6923 18.1931C21.9692 18.1931 23.8154 16.3985 24 14.1708C24 13.9851 23.8769 13.8614 23.6923 13.8614Z" fill="#61C100"/>
<path d="M20.4309 6.49752C20.3078 6.25 20.1232 6.12624 19.8771 6.06436C19.8156 6.00247 19.7539 6.00248 19.6308 5.94059C18.0309 5.56931 16.1232 5.32178 13.9693 5.19802C13.7232 4.70297 13.2924 4.2698 12.7386 4.08416L13.5386 2.9703C13.6001 2.84653 13.6001 2.78465 13.5386 2.66089L12.3078 0.185644C12.1848 -0.0618812 11.877 -0.0618812 11.7539 0.185644L10.5231 2.66089C10.4616 2.78465 10.4616 2.90842 10.5231 2.9703L11.3232 4.08416C10.7693 4.2698 10.3385 4.70297 10.0924 5.19802C7.93854 5.32178 6.03088 5.56931 4.43088 5.94059C4.36934 5.94059 4.24633 6.00247 4.18479 6.06436C3.93863 6.12624 3.75393 6.25 3.63085 6.49752L1.23091 12.3144H2.89242L4.36928 8.78712L5.8463 12.3144H7.5078L5.5386 7.61138C6.83091 7.30198 8.43085 7.17822 10.0924 7.05446C10.277 7.42575 10.5231 7.67327 10.8308 7.92079V20.0495H9.60005C8.92313 20.0495 8.36928 20.6064 8.36928 21.2871V21.9059H6.52313C5.84621 21.9059 5.29236 22.4629 5.29236 23.1436V24.6906C5.29236 24.8762 5.41544 25 5.60005 25H18.5231C18.7077 25 18.8308 24.8762 18.8308 24.6906V23.1436C18.8308 22.4629 18.277 21.9059 17.6001 21.9059H15.7539V21.2871C15.7539 20.6064 15.2001 20.0495 14.5231 20.0495H13.2924V7.92079C13.6001 7.73515 13.8463 7.42575 14.0309 7.05446C15.754 7.11634 17.2924 7.30198 18.5847 7.61138L16.6155 12.3144H18.277L19.7539 8.78712L21.2309 12.3144H22.8924L20.4309 6.49752Z" fill="#61C100"/>
</svg>
