<svg width="9" height="19" viewBox="0 0 9 19" fill="none" xmlns="http://www.w3.org/2000/svg">
<path fill-rule="evenodd" clip-rule="evenodd" d="M1.91578 9.33652C1.969 9.38973 1.91578 9.81546 1.91578 9.86868V18.5429H5.69415C5.69415 16.2546 5.69415 13.9131 5.69415 11.6248C5.69415 11.5716 5.69415 9.38973 5.69415 9.33652C5.69415 9.2833 5.69415 9.33652 5.69415 9.2833C5.69415 9.2833 8.08889 9.2833 8.19532 9.2833H8.24854L8.56783 6.09032H5.69415C5.69415 5.61137 5.69415 5.13242 5.69415 4.65348C5.69415 4.22775 5.69415 3.69558 5.96023 3.48272L8.56783 3.21663V0.0236517C8.08888 -0.0295647 7.5035 0.0236517 6.97134 0.0236517C6.43918 0.0236517 5.90702 0.0236517 5.42807 0.0236517C4.47017 0.0768681 3.67193 0.396166 3.08655 0.875114C2.23509 2.20552 1.91578 1.08798 1.91578 6.09032H0V9.2833L1.91578 9.33652Z" fill="white"/>
</svg>
