<svg width="17" height="21" viewBox="0 0 17 21" fill="none" xmlns="http://www.w3.org/2000/svg">
<path d="M7.57045 0.0494181C3.0686 0.529661 -0.338211 4.79181 0.0268044 9.29408C0.513491 15.117 5.98872 19.4992 7.87463 20.8199C8.23964 21.06 8.72633 21.06 9.09134 20.8199C11.0381 19.3192 17 14.2766 17 8.39363C17 3.47114 12.6807 -0.490855 7.57045 0.0494181ZM8.48298 11.6953C6.59707 11.6953 5.13701 10.1945 5.13701 8.39363C5.13701 6.53269 6.65791 5.09196 8.48298 5.09196C10.3081 5.09196 11.829 6.59272 11.829 8.39363C11.829 10.1945 10.3081 11.6953 8.48298 11.6953Z" fill="#61C100"/>
</svg>
