<svg width="15" height="13" viewBox="0 0 15 13" fill="none" xmlns="http://www.w3.org/2000/svg">
<path d="M10.9551 0C9.25281 0 8.08989 0.860811 7.5 1.45811C6.91011 0.860811 5.74719 0 4.04494 0C1.68539 0 0 2.07297 0 4.55C0 5.97297 0.589888 7.46622 1.7191 8.83649C2.94944 10.3473 4.80337 11.7176 7.23034 12.9473C7.31461 12.9824 7.39888 13 7.48315 13C7.56742 13 7.65169 12.9824 7.73596 12.9473C10.1629 11.7176 12.0169 10.3473 13.2472 8.83649C14.4101 7.46622 15 5.97297 15 4.55C15 2.07297 13.3146 0 10.9551 0ZM12.3876 8.04595C11.309 9.36351 9.6573 10.6108 7.5 11.7176C5.3427 10.5932 3.70787 9.36351 2.61236 8.04595C1.65169 6.88649 1.17978 5.70946 1.17978 4.55C1.17978 2.75811 2.32584 1.22973 4.04494 1.22973C4.85393 1.22973 5.59551 1.47568 6.25281 1.96757C6.74157 2.33649 7.01124 2.70541 7.02809 2.74054C7.12921 2.91622 7.31461 3.00405 7.51685 3.00405C7.70225 3.00405 7.88764 2.89865 8.00562 2.74054C7.98876 2.70541 9 1.22973 10.9551 1.22973C12.6742 1.22973 13.8202 2.77568 13.8202 4.55C13.8202 5.70946 13.3483 6.88649 12.3876 8.04595Z" fill="#61C100"/>
</svg>
