<svg width="24" height="20" viewBox="0 0 24 20" fill="none" xmlns="http://www.w3.org/2000/svg">
<path d="M17.5281 0C14.8045 0 12.9438 1.32432 12 2.24324C11.0562 1.32432 9.19551 0 6.47191 0C2.69663 0 0 3.18919 0 7C0 9.18919 0.94382 11.4865 2.75056 13.5946C4.7191 15.9189 7.68539 18.027 11.5685 19.9189C11.7034 19.973 11.8382 20 11.973 20C12.1079 20 12.2427 19.973 12.3775 19.9189C16.2607 18.027 19.227 15.9189 21.1955 13.5946C23.0562 11.4865 24 9.18919 24 7C24 3.18919 21.3034 0 17.5281 0ZM19.8202 12.3784C18.0944 14.4054 15.4517 16.3243 12 18.027C8.54831 16.2973 5.93258 14.4054 4.17978 12.3784C2.6427 10.5946 1.88764 8.78378 1.88764 7C1.88764 4.24324 3.72135 1.89189 6.47191 1.89189C7.76629 1.89189 8.95281 2.27027 10.0045 3.02703C10.7865 3.59459 11.218 4.16216 11.2449 4.21622C11.4067 4.48649 11.7034 4.62162 12.027 4.62162C12.3236 4.62162 12.6202 4.45946 12.809 4.21622C12.782 4.16216 14.4 1.89189 17.5281 1.89189C20.2787 1.89189 22.1124 4.27027 22.1124 7C22.1124 8.78378 21.3573 10.5946 19.8202 12.3784Z" fill="#676767"/>
</svg>
