<svg width="24" height="20" viewBox="0 0 24 20" fill="none" xmlns="http://www.w3.org/2000/svg">
<path d="M17.5281 0C14.8045 0 12.9438 1.32432 12 2.24324C11.0562 1.32432 9.19551 0 6.47191 0C2.69663 0 0 3.18919 0 7C0 9.18919 0.94382 11.4865 2.75056 13.5946C4.7191 15.9189 7.68539 18.027 11.5685 19.9189C11.7034 19.973 11.8382 20 11.973 20C12.1079 20 12.2427 19.973 12.3775 19.9189C16.2607 18.027 19.227 15.9189 21.1955 13.5946C23.0562 11.4865 24 9.18919 24 7C24 3.18919 21.3034 0 17.5281 0Z" fill="#FB6C3F"/>
</svg>
