<svg width="18" height="18" viewBox="0 0 18 18" fill="none" xmlns="http://www.w3.org/2000/svg">
<path d="M15.5924 0H1.75613C0.798239 0 0 0.798246 0 1.75614V15.5924C0 16.5503 0.798239 17.3485 1.75613 17.3485H15.5924C16.5503 17.3485 17.3485 16.5503 17.3485 15.5924V1.75614C17.2953 0.798246 16.5503 0 15.5924 0ZM8.67426 5.16199C10.5901 5.16199 12.1333 6.70526 12.1333 8.62105C12.1333 10.5368 10.5901 12.0801 8.67426 12.0801C6.75847 12.0801 5.2152 10.5368 5.2152 8.62105C5.2152 6.70526 6.75847 5.16199 8.67426 5.16199ZM2.18187 15.5392C1.91578 15.5392 1.75613 15.3795 1.75613 15.1135V7.76959H3.5655C3.45906 8.03567 3.45906 8.35497 3.45906 8.62105C3.45906 11.4947 5.80058 13.8363 8.67426 13.8363C11.5479 13.8363 13.8895 11.4947 13.8895 8.62105C13.8895 8.35497 13.8895 8.03567 13.783 7.76959H15.5924V15.1135C15.5924 15.3795 15.4327 15.5392 15.1667 15.5392H2.18187ZM15.5924 3.8848C15.5924 4.15088 15.4327 4.31053 15.1667 4.31053H13.4105C13.1444 4.31053 12.9848 4.15088 12.9848 3.8848V2.18187C12.9848 1.91579 13.1444 1.75614 13.4105 1.75614H15.1667C15.4327 1.75614 15.5924 1.91579 15.5924 2.18187V3.8848Z" fill="white"/>
</svg>
