<svg width="207" height="42" viewBox="0 0 207 42" fill="none" xmlns="http://www.w3.org/2000/svg">
<path d="M99.6948 33.2116C99.6948 33.6059 99.6159 34.0003 99.4976 34.3158C99.3793 34.6707 99.1427 34.9862 98.8666 35.2228C98.5906 35.4989 98.2356 35.6961 97.8018 35.8538C97.368 36.0115 96.8948 36.0904 96.3033 36.0904H95.0808L94.4498 39.127H93.4639L95.1596 31.082H97.2497C97.6835 31.082 98.0385 31.1609 98.3539 31.2398C98.6694 31.3581 98.9061 31.5158 99.1032 31.713C99.3004 31.9102 99.4187 32.1468 99.537 32.3834C99.6159 32.6595 99.6948 32.9355 99.6948 33.2116ZM98.6694 33.2905C98.6694 33.0933 98.63 32.8961 98.5511 32.7383C98.4723 32.5806 98.3934 32.4229 98.2356 32.3046C98.1173 32.1862 97.9201 32.1074 97.723 32.0285C97.5258 31.9496 97.2892 31.9496 97.0131 31.9496H95.9089L95.1991 35.2623H96.3427C96.7371 35.2623 97.092 35.2228 97.368 35.1045C97.6441 35.0256 97.8807 34.8679 98.0779 34.7102C98.2751 34.5524 98.3934 34.3158 98.4723 34.0792C98.63 33.8426 98.6694 33.5665 98.6694 33.2905Z" fill="#2E2520"/>
<path d="M108.056 34.3548C108.056 34.7097 108.017 35.0646 107.977 35.3801C107.898 35.735 107.819 36.0505 107.701 36.366C107.583 36.6815 107.425 36.997 107.267 37.273C107.11 37.5491 106.912 37.8251 106.676 38.0618C106.479 38.2589 106.321 38.4167 106.084 38.5744C105.887 38.7322 105.65 38.8505 105.414 38.9688C105.177 39.0871 104.901 39.166 104.625 39.2054C104.349 39.2448 104.073 39.2843 103.758 39.2843C103.245 39.2843 102.811 39.2054 102.377 39.0082C101.983 38.8505 101.628 38.6139 101.352 38.2984C101.076 37.9829 100.839 37.628 100.721 37.1942C100.563 36.7604 100.484 36.3266 100.484 35.8139C100.484 35.0252 100.603 34.3548 100.879 33.7238C101.115 33.0928 101.47 32.5801 101.944 32.1069C102.298 31.752 102.732 31.4365 103.205 31.2393C103.679 31.0421 104.231 30.9238 104.822 30.9238C105.335 30.9238 105.769 31.0027 106.163 31.1604C106.558 31.3182 106.912 31.5548 107.189 31.8703C107.465 32.1858 107.701 32.5407 107.819 32.9351C107.977 33.4083 108.056 33.8421 108.056 34.3548ZM107.031 34.3942C107.031 33.9998 106.991 33.6449 106.873 33.3294C106.755 33.0139 106.597 32.7379 106.4 32.5013C106.203 32.2647 105.966 32.1069 105.69 31.9886C105.414 31.8703 105.098 31.7914 104.743 31.7914C104.31 31.7914 103.915 31.8703 103.56 32.0675C103.166 32.2647 102.851 32.5013 102.574 32.8168C102.417 33.0139 102.259 33.2111 102.141 33.4477C102.022 33.6844 101.904 33.921 101.786 34.197C101.707 34.4731 101.628 34.7491 101.549 35.0252C101.51 35.3012 101.47 35.6167 101.47 35.8928C101.47 36.2871 101.51 36.6026 101.628 36.9181C101.746 37.2336 101.865 37.5097 102.062 37.7463C102.259 37.9829 102.496 38.1406 102.772 38.2589C103.048 38.3773 103.403 38.4561 103.758 38.4561C104.191 38.4561 104.586 38.3773 104.941 38.2195C105.335 38.0618 105.651 37.8251 105.927 37.4702C106.124 37.273 106.281 37.0364 106.4 36.7998C106.518 36.5632 106.636 36.2871 106.715 36.0111C106.794 35.735 106.873 35.459 106.912 35.1829C107.031 34.9069 107.031 34.6308 107.031 34.3942Z" fill="#2E2520"/>
<path d="M115.785 32.4236C115.667 32.3447 115.548 32.2659 115.43 32.187C115.272 32.1081 115.114 32.0292 114.957 31.9898C114.799 31.9109 114.602 31.8715 114.405 31.8321C114.207 31.7926 113.971 31.7926 113.774 31.7926C113.221 31.7926 112.709 31.9109 112.236 32.1081C111.802 32.3053 111.407 32.5814 111.092 32.9363C110.776 33.2912 110.54 33.6856 110.382 34.1588C110.224 34.632 110.145 35.1447 110.145 35.6968C110.145 36.1306 110.224 36.525 110.343 36.8799C110.461 37.2348 110.658 37.5109 110.855 37.7475C111.092 37.9841 111.368 38.1418 111.683 38.2602C111.999 38.3785 112.354 38.4573 112.748 38.4573C112.985 38.4573 113.221 38.4573 113.419 38.4179C113.616 38.3785 113.813 38.339 113.971 38.2996C114.128 38.2601 114.286 38.1813 114.444 38.1024C114.602 38.0235 114.759 37.9447 114.878 37.8658L114.641 38.8517C114.326 38.97 114.01 39.0883 113.655 39.1672C113.3 39.2461 112.906 39.2855 112.472 39.2855C111.96 39.2855 111.486 39.2066 111.092 39.0489C110.658 38.8911 110.303 38.6545 110.027 38.339C109.751 38.0235 109.514 37.6686 109.357 37.2348C109.199 36.801 109.12 36.3278 109.12 35.7757C109.12 35.0658 109.238 34.4348 109.436 33.8433C109.672 33.2518 109.988 32.7391 110.382 32.3447C110.776 31.9109 111.289 31.5954 111.841 31.3588C112.433 31.1222 113.064 31.0039 113.734 31.0039C114.207 31.0039 114.641 31.0433 114.996 31.1617C115.351 31.28 115.667 31.3983 115.943 31.5166L115.785 32.4236Z" fill="#2E2520"/>
<path d="M122.804 32.4236C122.686 32.3447 122.568 32.2659 122.449 32.187C122.292 32.1081 122.173 32.0292 121.976 31.9898C121.818 31.9109 121.621 31.8715 121.424 31.8321C121.227 31.7926 121.03 31.7926 120.793 31.7926C120.241 31.7926 119.728 31.9109 119.255 32.1081C118.821 32.3053 118.427 32.5814 118.111 32.9363C117.796 33.2912 117.559 33.6856 117.402 34.1588C117.244 34.632 117.165 35.1447 117.165 35.6968C117.165 36.1306 117.244 36.525 117.362 36.8799C117.48 37.2348 117.678 37.5109 117.875 37.7475C118.111 37.9841 118.388 38.1418 118.703 38.2602C119.018 38.3785 119.373 38.4573 119.768 38.4573C120.004 38.4573 120.241 38.4573 120.438 38.4179C120.635 38.3785 120.833 38.339 120.99 38.2996C121.148 38.2601 121.306 38.1813 121.464 38.1024C121.621 38.0235 121.779 37.9447 121.897 37.8658L121.661 38.8517C121.345 38.97 121.03 39.0883 120.675 39.1672C120.32 39.2461 119.926 39.2855 119.492 39.2855C118.979 39.2855 118.506 39.2066 118.111 39.0489C117.678 38.8911 117.323 38.6545 117.047 38.339C116.771 38.0235 116.534 37.6686 116.376 37.2348C116.219 36.801 116.14 36.3278 116.14 35.7757C116.14 35.0658 116.258 34.4348 116.455 33.8433C116.692 33.2518 117.007 32.7391 117.402 32.3447C117.796 31.9109 118.309 31.5954 118.861 31.3588C119.452 31.1222 120.083 31.0039 120.754 31.0039C121.227 31.0039 121.661 31.0433 122.016 31.1617C122.371 31.28 122.686 31.3983 122.962 31.5166L122.804 32.4236Z" fill="#2E2520"/>
<path d="M129.549 39.1274H128.642L129.825 33.4486C129.864 33.3303 129.904 33.1725 129.943 33.0148C129.982 32.857 130.022 32.6993 130.061 32.581H130.022C129.982 32.6204 129.943 32.6599 129.903 32.6993C129.864 32.7387 129.825 32.8176 129.746 32.857C129.706 32.8965 129.667 32.9753 129.588 33.0148C129.549 33.0542 129.509 33.1331 129.47 33.1725L123.909 39.0879H123.081L124.777 31.043H125.684L124.501 36.7612C124.461 36.8401 124.461 36.9584 124.422 37.1161C124.382 37.2344 124.343 37.3922 124.343 37.4711H124.382C124.422 37.4316 124.461 37.3922 124.501 37.3527C124.54 37.3133 124.58 37.2344 124.619 37.195C124.658 37.1556 124.698 37.0767 124.777 37.0373C124.816 36.9978 124.856 36.9584 124.895 36.919L130.377 31.0824H131.284L129.549 39.1274Z" fill="#2E2520"/>
<path d="M138.105 39.1267H137.198L138.381 33.4479C138.421 33.3296 138.46 33.1719 138.5 33.0141C138.539 32.8564 138.578 32.6986 138.618 32.5803H138.578C138.539 32.6198 138.5 32.6592 138.46 32.6986C138.421 32.7381 138.381 32.8169 138.302 32.8564C138.263 32.8958 138.224 32.9747 138.145 33.0141C138.105 33.0536 138.066 33.1324 138.026 33.1719L132.466 39.0873H131.638L133.333 31.0423H134.24L133.057 36.7606C133.018 36.8394 133.018 36.9577 132.979 37.1155C132.939 37.2338 132.9 37.3915 132.9 37.4704H132.939C132.979 37.431 133.018 37.3915 133.057 37.3521C133.097 37.3127 133.136 37.2338 133.176 37.1944C133.215 37.1549 133.255 37.076 133.333 37.0366C133.373 36.9972 133.412 36.9577 133.452 36.9183L138.933 31.0818H139.84L138.105 39.1267ZM138.618 29.2677C138.5 29.4649 138.342 29.6621 138.145 29.8198C137.947 29.9775 137.75 30.0959 137.514 30.2142C137.277 30.293 137.001 30.3719 136.686 30.3719C136.37 30.3719 136.133 30.3325 135.897 30.2142C135.66 30.1353 135.502 29.9775 135.345 29.8198C135.187 29.6621 135.108 29.4649 135.029 29.2677C134.95 29.0705 134.911 28.8339 134.911 28.6367H135.818C135.818 28.7945 135.857 28.9128 135.857 29.0705C135.897 29.1888 135.936 29.3071 136.015 29.386C136.094 29.4649 136.173 29.5437 136.291 29.6226C136.409 29.6621 136.528 29.7015 136.725 29.7015C136.883 29.7015 137.04 29.6621 137.159 29.6226C137.277 29.5832 137.395 29.5043 137.514 29.386C137.632 29.3071 137.711 29.1888 137.79 29.0705C137.869 28.9522 137.908 28.7945 137.987 28.6762H138.933C138.815 28.8339 138.736 29.0705 138.618 29.2677Z" fill="#2E2520"/>
<path d="M147.215 32.4236C147.097 32.3447 146.979 32.2659 146.861 32.187C146.703 32.1081 146.585 32.0292 146.387 31.9898C146.23 31.9109 146.032 31.8715 145.835 31.8321C145.638 31.7926 145.401 31.7926 145.204 31.7926C144.652 31.7926 144.139 31.9109 143.666 32.1081C143.232 32.3053 142.838 32.5814 142.523 32.9363C142.207 33.2912 141.97 33.6856 141.813 34.1588C141.655 34.632 141.576 35.1447 141.576 35.6968C141.576 36.1306 141.655 36.525 141.773 36.8799C141.892 37.2348 142.089 37.5109 142.286 37.7475C142.523 37.9841 142.799 38.1418 143.114 38.2602C143.43 38.3785 143.785 38.4573 144.179 38.4573C144.416 38.4573 144.652 38.4573 144.849 38.4179C145.046 38.3785 145.244 38.339 145.401 38.2996C145.559 38.2601 145.717 38.1813 145.875 38.1024C146.032 38.0235 146.19 37.9447 146.308 37.8658L146.072 38.8517C145.756 38.97 145.441 39.0883 145.086 39.1672C144.731 39.2461 144.337 39.2855 143.903 39.2855C143.39 39.2855 142.917 39.2066 142.523 39.0489C142.089 38.8911 141.734 38.6545 141.458 38.339C141.182 38.0235 140.945 37.6686 140.787 37.2348C140.63 36.801 140.551 36.3278 140.551 35.7757C140.551 35.0658 140.669 34.4348 140.866 33.8433C141.103 33.2518 141.418 32.7391 141.813 32.3447C142.207 31.9109 142.72 31.5954 143.272 31.3588C143.863 31.1222 144.494 31.0039 145.165 31.0039C145.638 31.0039 146.072 31.0433 146.427 31.1617C146.782 31.28 147.097 31.3983 147.373 31.5166L147.215 32.4236Z" fill="#2E2520"/>
<path d="M150.331 35.0651L153.131 39.127H151.947L149.502 35.4594C149.463 35.42 149.463 35.3806 149.424 35.3017C149.384 35.2228 149.345 35.1834 149.345 35.1439H149.305L148.477 39.127H147.491L149.187 31.082H150.173L149.384 34.8679H149.424C149.463 34.8285 149.502 34.789 149.542 34.7102C149.581 34.6707 149.621 34.6313 149.66 34.5918L153.367 31.082H154.629L150.331 35.0651Z" fill="#2E2520"/>
<path d="M160.86 39.1274H159.953L161.136 33.4486C161.176 33.3303 161.215 33.1725 161.254 33.0148C161.294 32.857 161.333 32.6993 161.373 32.581H161.333C161.294 32.6204 161.254 32.6599 161.215 32.6993C161.176 32.7387 161.136 32.8176 161.057 32.857C161.018 32.8965 160.978 32.9753 160.9 33.0148C160.86 33.0542 160.821 33.1331 160.781 33.1725L155.221 39.0879H154.393L156.088 31.043H156.995L155.812 36.7612C155.773 36.8401 155.773 36.9584 155.733 37.1161C155.694 37.2344 155.655 37.3922 155.655 37.4711H155.694C155.733 37.4316 155.773 37.3922 155.812 37.3527C155.852 37.3133 155.891 37.2344 155.931 37.195C155.97 37.1556 156.009 37.0767 156.088 37.0373C156.128 36.9978 156.167 36.9584 156.207 36.919L161.688 31.0824H162.595L160.86 39.1274Z" fill="#2E2520"/>
<path d="M168.551 31.9489H165.436L164.844 34.7094H167.723L167.526 35.577H164.647L164.055 38.3375H167.368L167.21 39.2051H162.951L164.647 31.1602H168.748L168.551 31.9489Z" fill="#2E2520"/>
<path d="M177.661 38.2985H178.844L178.213 41.2956H177.306L177.779 39.1661H171.942L171.509 41.2956H170.602L171.233 38.2985H171.864C172.297 37.9041 172.692 37.4703 173.047 36.9576C173.402 36.4844 173.678 35.9323 173.954 35.3408C174.23 34.7492 174.466 34.0788 174.663 33.4084C174.861 32.6985 175.058 31.9493 175.255 31.1211H179.159L177.661 38.2985ZM175.965 31.9493C175.886 32.2253 175.807 32.5408 175.728 32.8957C175.649 33.2506 175.531 33.6056 175.413 33.9999C175.294 34.3943 175.137 34.7887 174.979 35.183C174.821 35.5774 174.663 35.9717 174.466 36.3661C174.269 36.7605 174.072 37.0759 173.835 37.4309C173.599 37.7464 173.362 38.0618 173.086 38.2985H176.714L178.055 31.9887H175.965V31.9493Z" fill="#2E2520"/>
<path d="M185.784 32.818C185.784 33.0546 185.745 33.2912 185.666 33.5278C185.587 33.7644 185.469 33.9616 185.35 34.1588C185.193 34.356 184.995 34.5137 184.798 34.632C184.562 34.7503 184.286 34.8686 183.97 34.9081V34.9475C184.207 34.987 184.404 35.0658 184.562 35.1447C184.719 35.263 184.877 35.3813 184.995 35.4996C185.114 35.6574 185.193 35.8151 185.272 35.9729C185.311 36.17 185.35 36.3278 185.35 36.525C185.35 36.9588 185.272 37.3137 185.114 37.6292C184.956 37.9447 184.759 38.2207 184.483 38.4179C184.207 38.6151 183.891 38.8123 183.536 38.8911C183.181 39.0094 182.787 39.0489 182.353 39.0489H179.908L181.604 31.0039H183.812C184.128 31.0039 184.404 31.0433 184.68 31.1222C184.917 31.2011 185.153 31.3194 185.311 31.4771C185.469 31.6349 185.587 31.8321 185.705 32.0292C185.745 32.3447 185.784 32.5814 185.784 32.818ZM184.364 36.6433C184.364 36.2489 184.246 35.9334 183.97 35.6968C183.694 35.4602 183.26 35.3419 182.708 35.3419H181.643L181.052 38.2207H182.353C182.708 38.2207 183.024 38.1813 183.26 38.1024C183.497 38.0235 183.733 37.9052 183.891 37.7869C184.049 37.6292 184.167 37.4714 184.246 37.2742C184.325 37.1165 184.364 36.9193 184.364 36.6433ZM184.798 33.0151C184.798 32.8574 184.759 32.7391 184.719 32.6208C184.68 32.5025 184.601 32.3842 184.522 32.2659C184.404 32.1476 184.286 32.0687 184.128 32.0292C183.97 31.9898 183.773 31.9504 183.536 31.9504H182.353L181.801 34.5532H182.866C183.181 34.5532 183.457 34.5137 183.694 34.4348C183.931 34.356 184.128 34.2377 184.286 34.1194C184.443 34.0011 184.562 33.8039 184.641 33.6461C184.759 33.4489 184.798 33.2518 184.798 33.0151Z" fill="#2E2520"/>
<path d="M192.094 31.9489H188.979L188.387 34.7094H191.266L191.069 35.577H188.19L187.598 38.3375H190.911L190.753 39.2051H186.494L188.19 31.1602H192.252L192.094 31.9489Z" fill="#2E2520"/>
<path d="M198.403 33.2116C198.403 33.6059 198.325 34.0003 198.206 34.3158C198.088 34.6707 197.851 34.9862 197.575 35.2228C197.299 35.4989 196.944 35.6961 196.51 35.8538C196.077 36.0115 195.603 36.0904 195.012 36.0904H193.789L193.158 39.127H192.212L193.908 31.082H195.998C196.432 31.082 196.787 31.1609 197.102 31.2398C197.417 31.3581 197.654 31.5158 197.851 31.713C198.048 31.9102 198.167 32.1468 198.285 32.3834C198.364 32.6595 198.403 32.9355 198.403 33.2116ZM197.417 33.2905C197.417 33.0933 197.378 32.8961 197.299 32.7383C197.22 32.5806 197.141 32.4229 196.984 32.3046C196.826 32.1862 196.668 32.1074 196.471 32.0285C196.274 31.9496 196.037 31.9496 195.761 31.9496H194.657L193.947 35.2623H195.091C195.485 35.2623 195.84 35.2228 196.116 35.1045C196.392 35.0256 196.629 34.8679 196.826 34.7102C197.023 34.5524 197.141 34.3158 197.22 34.0792C197.378 33.8426 197.417 33.5665 197.417 33.2905Z" fill="#2E2520"/>
<path d="M205.264 39.1274H204.357L205.54 33.4486C205.58 33.3303 205.619 33.1725 205.659 33.0148C205.698 32.857 205.738 32.6993 205.777 32.581H205.738C205.698 32.6204 205.659 32.6599 205.619 32.6993C205.58 32.7387 205.54 32.8176 205.462 32.857C205.422 32.8965 205.383 32.9753 205.304 33.0148C205.264 33.0542 205.225 33.1331 205.186 33.1725L199.625 39.0879H198.797L200.493 31.043H201.4L200.217 36.7612C200.177 36.8401 200.177 36.9584 200.138 37.1161C200.098 37.2344 200.059 37.3922 200.059 37.4711H200.098C200.138 37.4316 200.177 37.3922 200.217 37.3527C200.256 37.3133 200.295 37.2344 200.335 37.195C200.374 37.1556 200.414 37.0767 200.493 37.0373C200.532 36.9978 200.572 36.9584 200.611 36.919L206.093 31.0824H207L205.264 39.1274Z" fill="#2E2520"/>
<path d="M117.914 0.873247V23.2335H93.2666V17.8702H111.959V8.83934L103.323 16.5688H94.6074L111.959 0.873247H117.914Z" fill="#2E2520"/>
<path d="M134.911 8.91822C135.187 8.60273 135.306 8.2478 135.306 7.81401C135.306 7.34077 135.187 6.98585 134.911 6.70979C134.635 6.43374 134.28 6.276 133.807 6.276H127.261V23.273H121.306V6.276L127.261 0.912685H134.911C136.725 0.912685 138.224 1.54366 139.446 2.84505C140.629 4.10701 141.26 5.80276 141.26 7.85344C141.26 8.83934 141.024 9.70694 140.55 10.4562C140.077 11.2055 139.446 11.7576 138.658 12.1914C139.407 12.428 140.038 12.9407 140.511 13.7294C140.984 14.5181 141.26 15.4252 141.26 16.3716C141.26 18.4618 140.669 20.1181 139.446 21.4195C138.224 22.6814 136.725 23.3518 134.951 23.3518H128.641V17.8702H133.846C134.32 17.8702 134.675 17.7125 134.951 17.397C135.227 17.0815 135.345 16.7266 135.345 16.2928C135.345 15.8195 135.227 15.4646 134.951 15.1886C134.675 14.9125 134.32 14.7548 133.846 14.7548H128.641V9.39145H133.846C134.28 9.39145 134.675 9.23371 134.911 8.91822Z" fill="#2E2520"/>
<path d="M144.534 23.2335V6.276L150.488 0.912685H165.829L159.874 6.276H150.488V9.39145H159.874V14.7548H150.488V17.8702H159.874V23.2335H144.534Z" fill="#2E2520"/>
<path d="M179.395 15.7801C177.739 17.1604 175.885 17.8702 173.795 17.8702H172.533V12.5069H173.795C174.623 12.5069 175.373 12.2309 176.004 11.6393C176.635 11.0478 176.911 10.2985 176.911 9.39145C176.911 8.48442 176.595 7.73513 175.964 7.14359C175.333 6.55205 174.623 6.276 173.795 6.276H171.153V23.273H165.198V6.276L171.153 0.912685H173.835C175.925 0.912685 177.778 1.62254 179.435 3.04224C181.367 4.65912 182.313 6.78867 182.313 9.43089C182.274 12.0337 181.327 14.1632 179.395 15.7801Z" fill="#2E2520"/>
<path d="M191.029 0.439453V10.259L201.322 0.87325H206.448V23.273H200.493V9.78581L185.074 23.6673V5.8422L191.029 0.439453Z" fill="#2E2520"/>
<path d="M24.411 25.9944C21.5716 28.4 18.3772 29.5831 14.7885 29.5831H12.6196V20.3551H14.7885C16.2477 20.3551 17.5096 19.8818 18.535 18.8565C19.5997 17.8706 20.1124 16.5692 20.1124 14.9918C20.1124 13.4143 19.5603 12.1524 18.4955 11.1664C17.4308 10.1805 16.1688 9.66788 14.7491 9.66788H10.214V38.8506H0V9.66788L10.214 0.400391H14.828C18.3772 0.400391 21.611 1.62291 24.4504 4.02851C27.7236 6.82848 29.3799 10.496 29.3799 14.9918C29.3799 19.5269 27.7236 23.1945 24.411 25.9944Z" fill="#61C100"/>
<path d="M52.1345 9.62844C49.7684 10.0228 47.8754 11.0876 46.3769 12.9411C44.9177 14.7551 44.1684 16.9636 44.1684 19.5663C44.1684 22.248 45.1938 24.5747 47.2445 26.586C49.2951 28.5972 51.6613 29.5831 54.343 29.5831V0.400391H65.7006C70.8272 0.400391 75.323 2.33276 79.1877 6.1975C83.0524 10.0622 84.9848 14.558 84.9848 19.6846C84.9848 24.9297 83.2102 29.4254 79.7004 33.1718C76.1511 36.9577 71.892 38.8506 66.8048 38.8506V29.5831C69.1709 29.1888 71.0639 28.0845 72.5624 26.2705C74.0216 24.4564 74.7709 22.248 74.7709 19.6452C74.7709 16.9636 73.7455 14.5974 71.7343 12.6256C69.723 10.6538 67.3174 9.62844 64.5963 9.62844V38.8112H53.2387C48.112 38.8112 43.6163 36.8788 39.7516 33.0141C35.8869 29.1888 33.9545 24.693 33.9545 19.5663C33.9545 14.3213 35.7291 9.82562 39.2389 6.07919C42.7882 2.29332 47.0473 0.400391 52.1345 0.400391V9.62844Z" fill="#61C100"/>
</svg>
