<svg width="23" height="20" viewBox="0 0 23 20" fill="none" xmlns="http://www.w3.org/2000/svg">
<path d="M22.0855 4.05053C21.9213 2.57327 21.5194 1.91019 20.5635 0.74182C20.2988 0.344775 19.9017 0.0800781 19.4385 0.0800781H3.02731C2.56409 0.0800781 2.10086 0.344775 1.90234 0.74182C0.901676 1.96485 0.512695 2.55656 0.512695 4.11671V4.57991C0.512695 5.70488 1.37296 6.56514 2.49792 6.56514H2.63026C3.75522 6.56514 4.61548 6.36662 4.61548 5.24166V4.05053C4.61548 3.58731 5.01254 3.19025 5.47576 3.19025C5.93898 3.19025 6.33602 3.58731 6.33602 4.05053V5.24166C6.33602 6.36662 7.19628 6.56514 8.32124 6.56514H8.4536C9.57856 6.56514 10.4388 6.36662 10.4388 5.24166V4.24904V4.05053C10.4388 3.58731 10.8359 3.19025 11.2991 3.19025C11.7623 3.19025 12.1593 3.58731 12.1593 4.05053V4.77845V5.24166C12.1593 6.36662 13.0196 6.56514 14.1446 6.56514H14.2769C15.4019 6.56514 16.2621 6.36662 16.2621 5.24166V4.05053C16.2621 3.58731 16.6592 3.19025 17.1224 3.19025C17.5856 3.19025 17.9827 3.58731 17.9827 4.05053V5.24166C17.9827 6.36662 18.8429 6.56514 19.9679 6.56514H20.1002C21.2252 6.56514 22.0855 5.70488 22.0855 4.57991V4.05053Z" fill="#61C100"/>
<path fill-rule="evenodd" clip-rule="evenodd" d="M20.1674 19.9995H2.16699V8.21997H2.49786C3.68903 8.21997 4.68164 7.69006 5.34339 6.89648C6.07129 7.69006 7.0639 8.21997 8.18883 8.21997H8.32122C9.51231 8.21997 10.5049 7.69006 11.1667 6.89648C11.8946 7.69006 12.8872 8.21997 14.0122 8.21997H14.1445C15.3357 8.21997 16.3283 7.69006 16.99 6.89648C17.7179 7.69006 18.7105 8.21997 19.8355 8.21997H20.1663L20.1674 19.9995ZM10.902 15.6982C10.902 15.8959 10.7696 16.029 10.5711 16.029H4.6154C4.50118 16.029 4.40885 15.9851 4.35101 15.9101C4.30836 15.8546 4.28453 15.7822 4.28453 15.6982V11.066C4.28453 10.8669 4.41693 10.7351 4.6154 10.7351H10.5711C10.7696 10.7351 10.902 10.8669 10.902 11.066V15.6982ZM18.0794 17.9328C18.0222 17.9845 17.9435 18.0143 17.8502 18.0143H13.8798C13.8002 18.0143 13.7312 17.9936 13.6772 17.9548C13.5964 17.8979 13.5489 17.8023 13.5489 17.6834V11.066C13.5489 10.8669 13.6813 10.7351 13.8798 10.7351H17.8502C18.0488 10.7351 18.1811 10.8669 18.1811 11.066V17.6834C18.1811 17.7881 18.144 17.8747 18.0794 17.9328Z" fill="#61C100"/>
</svg>
