<svg width="19" height="15" viewBox="0 0 19 15" fill="none" xmlns="http://www.w3.org/2000/svg">
<path d="M16.6651 0H2.33487C1.05069 0 0 1.08871 0 2.41935V12.5806C0 13.9113 1.05069 15 2.33487 15H16.6651C17.9493 15 19 13.9113 19 12.5806V2.41935C19 1.08871 17.9493 0 16.6651 0ZM17.9493 12.5504C17.9493 13.2762 17.3948 13.8508 16.6943 13.8508H2.36408C1.66362 13.8508 1.10908 13.2762 1.10908 12.5504V2.38912C1.10908 1.66331 1.66362 1.08872 2.36408 1.08872H16.6943C17.3948 1.08872 17.9493 1.66331 17.9493 2.38912V12.5504Z" fill="#61C100"/>
<path d="M11.9954 7.3488L16.6359 3.02419C16.8402 2.8125 16.8694 2.47985 16.6651 2.23791C16.4608 2.02622 16.1398 1.99598 15.9063 2.20768L9.51461 8.16532L8.2596 7.01613C8.23042 6.98589 8.20122 6.95565 8.17203 6.92541L3.09373 2.20768C2.86024 1.99598 2.53917 2.02622 2.33487 2.23791C2.13057 2.47985 2.15979 2.8125 2.36409 3.02419L7.06299 7.37904L2.39326 11.9153C2.18896 12.127 2.15979 12.4597 2.36409 12.7016C2.48083 12.8226 2.59755 12.8831 2.74348 12.8831C2.86022 12.8831 3.00617 12.8226 3.09373 12.7319L7.85099 8.13509L9.13518 9.31453C9.22274 9.40525 9.36865 9.46574 9.48539 9.46574C9.60214 9.46574 9.74809 9.40525 9.83564 9.31453L11.149 8.0746L15.8771 12.7319C15.9646 12.8226 16.1106 12.8831 16.2565 12.8831C16.4024 12.8831 16.5484 12.8226 16.6359 12.7016C16.8402 12.4899 16.8402 12.127 16.6067 11.9153L11.9954 7.3488Z" fill="#61C100"/>
</svg>
