<svg width="18" height="19" viewBox="0 0 18 19" fill="none" xmlns="http://www.w3.org/2000/svg">
<path d="M17.9186 14.7739L17.8132 14.4892C17.6024 13.8487 16.8997 13.1726 16.2673 12.9947L13.9134 12.3542C13.281 12.1762 12.3675 12.4253 11.8757 12.8879L11.0325 13.7775C7.94072 12.9235 5.48138 10.4682 4.63818 7.30115L5.48138 6.44712C5.93812 5.98452 6.18405 5.05933 6.00838 4.38322L5.37598 1.99906C5.20032 1.35853 4.53278 0.646843 3.90038 0.433335L3.61931 0.326582C3.02205 0.113074 2.10858 0.326582 1.65184 0.824765L0.387041 2.10581C0.141107 2.3549 0.000573234 2.99542 0.000573234 2.99542C-0.0345602 7.12323 1.54644 11.0731 4.42738 13.991C7.30832 16.909 11.2081 18.5103 15.2485 18.4747C15.2836 18.4747 15.9511 18.3324 16.1619 18.0833L17.4267 16.8022C17.9186 16.3396 18.1294 15.4144 17.9186 14.7739Z" fill="#61C100"/>
</svg>
