<svg width="15" height="15" viewBox="0 0 15 15" fill="none" xmlns="http://www.w3.org/2000/svg">
<path d="M12.6645 6.31034C12.699 4.17241 10.8714 2.24138 8.63003 1.96552C8.59555 1.96552 8.52658 1.96552 8.4921 1.93103C8.38865 1.89655 8.25072 1.89655 8.14727 1.89655C7.69899 1.89655 7.56106 2.2069 7.52658 2.41379C7.4921 2.58621 7.52658 2.75862 7.63003 2.89655C7.76796 3.10345 8.04382 3.13793 8.25072 3.17241C8.31968 3.17241 8.38865 3.17241 8.42313 3.2069C10.4231 3.65517 11.1128 4.34483 11.4231 6.34483C11.4231 6.37931 11.4231 6.44828 11.4231 6.51724C11.4231 6.75862 11.4576 7.24138 12.0093 7.24138C12.0438 7.24138 12.1128 7.24138 12.1473 7.24138C12.63 7.17241 12.63 6.72414 12.63 6.48276C12.6645 6.41379 12.6645 6.37931 12.6645 6.31034Z" fill="#61C100"/>
<path d="M8.04382 1.2069C8.11279 1.2069 8.14727 1.2069 8.21623 1.2069C11.5266 1.72414 13.0438 3.27586 13.4576 6.58621C13.4576 6.65517 13.4576 6.72414 13.4576 6.7931C13.4576 7.06897 13.4576 7.58621 14.0438 7.62069H14.0783C14.2507 7.62069 14.3886 7.55172 14.4921 7.44828C14.6645 7.27586 14.6645 6.96552 14.6645 6.75862C14.6645 6.68966 14.6645 6.65517 14.6645 6.62069C14.6645 3.2069 11.7335 0.137931 8.31968 0H8.25072C8.21623 0 8.18175 0 8.14727 0C8.0783 0 8.04382 0 7.97486 0C7.42313 0 7.31968 0.37931 7.31968 0.62069C7.2852 1.13793 7.76796 1.17241 8.04382 1.2069Z" fill="#61C100"/>
<path d="M13.2852 10.8966C13.2162 10.8276 13.1473 10.7931 13.0783 10.7241C12.7335 10.4483 12.3197 10.1724 11.9749 9.89655C11.9059 9.82759 11.8369 9.7931 11.7335 9.72414C11.2507 9.37931 10.8369 9.24138 10.4231 9.24138C9.87141 9.24138 9.42313 9.55172 9.00934 10.1379C8.83692 10.4138 8.63003 10.5172 8.35417 10.5172C8.21623 10.5172 8.04382 10.4828 7.83692 10.3793C6.31968 9.68966 5.21623 8.62069 4.59554 7.2069C4.2852 6.51724 4.38865 6.06897 4.94037 5.72414C5.25072 5.51724 5.80244 5.13793 5.76796 4.41379C5.73348 3.58621 3.90589 1.06897 3.11279 0.793104C2.76796 0.724138 2.42313 0.724139 2.0783 0.827587C1.18175 1.13793 0.561062 1.65517 0.216234 2.34483C-0.0941107 3 -0.0596279 3.7931 0.250717 4.62069C1.21623 7 2.56106 9.03448 4.2852 10.7586C5.97485 12.4138 8.00934 13.7931 10.3886 14.7931C10.5955 14.8966 10.8369 14.931 11.0093 14.9655C11.0783 14.9655 11.1128 15 11.1473 15C11.1818 15 11.1818 15 11.2162 15H11.2507C12.3542 15 13.699 13.9655 14.1128 12.8276C14.4576 11.8276 13.8024 11.3103 13.2852 10.8966Z" fill="#61C100"/>
<path d="M8.52658 3.89655C8.31968 3.89655 7.94037 3.89655 7.80244 4.31035C7.73347 4.51724 7.73347 4.65517 7.83692 4.7931C7.94037 5 8.18175 5.06897 8.38865 5.06897C9.14727 5.17241 9.52658 5.62069 9.59554 6.37931C9.63002 6.72414 9.8714 7 10.1817 7C10.2162 7 10.2162 7 10.2507 7C10.63 6.96552 10.8024 6.68966 10.8024 6.17241C10.8024 5.65517 10.5266 5.06897 10.0783 4.58621C9.59554 4.13793 9.04382 3.89655 8.52658 3.89655Z" fill="#61C100"/>
</svg>
