<svg width="16" height="15" viewBox="0 0 16 15" fill="none" xmlns="http://www.w3.org/2000/svg">
<path d="M15.7131 13.0335C15.3849 13.9618 13.8124 14.8094 13.056 14.9238C12.3776 15.0261 11.5197 15.0687 10.5766 14.7664C10.0047 14.583 9.27155 14.3384 8.3321 13.929C4.64264 12.32 2.14892 8.7091 1.67676 8.02538C1.64356 7.97732 1.62038 7.94373 1.60743 7.9263L1.60393 7.92158C1.39448 7.63925 0 5.7593 0 3.81362C0 1.98212 0.891254 1.02207 1.301 0.580664C1.32894 0.55054 1.35465 0.522826 1.37773 0.497424C1.73879 0.0993963 2.16538 0 2.4277 0C2.56071 0 2.69392 0.000614772 2.82284 0.00270499C2.94796 0.00474604 3.069 0.00816417 3.18195 0.0137709C3.21029 0.0151972 3.23979 0.015025 3.27027 0.0148283C3.49977 0.0134266 3.78576 0.0116807 4.06765 0.696266C4.17622 0.959732 4.33514 1.35028 4.50271 1.76216L4.50388 1.76474C4.84225 2.5967 5.21578 3.5148 5.2815 3.64766C5.37985 3.8469 5.44538 4.07898 5.31441 4.34434C5.18306 4.6097 4.74683 5.18223 4.33036 5.704L4.30738 5.7324C4.29658 5.74558 4.28557 5.75871 4.27457 5.77184C4.11303 5.9655 3.95178 6.15895 4.15763 6.5155C4.38694 6.91313 5.17741 8.21519 6.34744 9.26933C7.60482 10.4018 8.69763 10.8806 9.25217 11.1236L9.25539 11.1251C9.29531 11.1426 9.33241 11.1588 9.36649 11.174C9.42404 11.1996 9.47331 11.2222 9.51342 11.2425C9.90662 11.4413 10.1364 11.408 10.3661 11.1431C10.5954 10.8777 11.3502 9.98222 11.6125 9.58419C11.8748 9.18616 12.1374 9.2527 12.4982 9.38537C12.8593 9.51765 14.7944 10.4797 15.1881 10.6785C15.2652 10.7175 15.3373 10.7527 15.4041 10.7853C15.6782 10.9192 15.8633 11.0096 15.9424 11.1431C16.0412 11.309 16.0412 12.1047 15.7131 13.0335Z" fill="#61C100"/>
</svg>
