<svg width="15" height="15" viewBox="0 0 15 15" fill="none" xmlns="http://www.w3.org/2000/svg">
<path d="M1.76982 10.3705C-0.589937 8.01074 -0.589937 4.12957 1.76982 1.76981C4.12957 -0.589938 8.01074 -0.589938 10.3705 1.76981C12.3887 3.78802 12.6992 6.76876 11.302 9.12852C11.302 9.12852 11.2088 9.28376 11.333 9.43901L14.438 12.544C15.0589 13.1649 15.2142 14.0343 14.6553 14.5622L14.5622 14.6553C14.0033 15.2142 13.1339 15.0589 12.5439 14.438L9.43901 11.333C9.28377 11.1778 9.12852 11.302 9.12852 11.302C6.76877 12.6681 3.78802 12.3887 1.76982 10.3705ZM9.25272 9.25272C11.0225 7.4829 11.0225 4.65741 9.25272 2.88759C7.4829 1.11778 4.65741 1.11778 2.88759 2.88759C1.11778 4.65741 1.11778 7.4829 2.88759 9.25272C4.65741 10.9915 7.51395 10.9915 9.25272 9.25272Z" fill="#6B6A6B"/>
</svg>
