<svg width="19" height="19" viewBox="0 0 19 19" fill="none" xmlns="http://www.w3.org/2000/svg">
<path d="M3.06518 12.8485C0.233479 9.98047 0.233479 5.26326 3.06518 2.39519C5.89689 -0.472876 10.5543 -0.472876 13.386 2.39519C15.8078 4.84814 16.1804 8.47096 14.5038 11.339C14.5038 11.339 14.392 11.5277 14.541 11.7164L18.267 15.4902C19.0121 16.2449 19.1984 17.3016 18.5278 17.9431L18.416 18.0563C17.7453 18.7356 16.7021 18.5469 15.9941 17.7922L12.2682 14.0184C12.0819 13.8297 11.8956 13.9807 11.8956 13.9807C9.06392 15.6411 5.48703 15.3015 3.06518 12.8485ZM12.0447 11.49C14.1684 9.33893 14.1684 5.9048 12.0447 3.75375C9.92089 1.6027 6.53029 1.6027 4.40652 3.75375C2.28274 5.9048 2.28274 9.33893 4.40652 11.49C6.53029 13.6033 9.95815 13.6033 12.0447 11.49Z" fill="#61C100"/>
</svg>
