<svg width="25" height="18" viewBox="0 0 25 18" fill="none" xmlns="http://www.w3.org/2000/svg">
<path fill-rule="evenodd" clip-rule="evenodd" d="M21.4994 9.52573C21.5526 9.47251 21.4994 9.52573 21.5526 9.4193L21.6591 8.94035C22.3509 8.94035 22.8298 8.88713 23.4152 8.62105L24.586 7.82281C24.2135 7.82281 23.7877 7.92924 23.1491 7.82281L21.8719 7.55673C21.9784 7.50351 22.138 7.50351 22.2977 7.45029C22.4573 7.45029 22.5637 7.39708 22.7234 7.39708C23.0427 7.34386 23.2556 7.23743 23.4684 7.13099L24.4263 6.1731C24.0006 6.33275 23.5749 6.43918 22.9895 6.43918C22.7234 6.43918 21.6591 6.43918 21.5526 6.1731C21.4462 5.8538 21.4462 5.58772 21.1801 5.00234C21.0205 4.62982 20.8076 4.25731 20.5947 3.93801C20.169 3.29942 19.5836 2.71404 18.945 2.34152L16.2842 1.59649C16.4439 1.43684 17.0825 1.33041 17.2953 1.22398C18.4661 0.904678 18.4129 0.478947 18.0936 0.372515C17.7211 0.266082 16.8164 0.58538 16.4439 0.745029L17.2421 0C16.4971 0.0532164 16.0181 0.425731 15.4327 0.798246L15.6456 0.212866C14.9538 0.478947 13.6766 2.12866 13.3041 2.82047L11.814 6.11988C11.7076 6.06667 10.8029 5.16199 10.1111 4.73626C9.52573 4.36374 8.72749 3.99123 8.03567 3.67193C6.38597 2.9269 5.2152 2.44795 3.5655 1.86257C3.45906 3.35263 4.41696 4.15088 5.58772 4.94912L4.20409 5.10877C4.20409 5.74737 4.73626 6.38596 5.05556 6.70526C5.74737 7.29064 6.06667 7.29064 6.70526 7.50351L6.8117 7.55673C5.80058 7.71637 6.11988 7.60994 5.26842 8.19532C5.26842 8.56784 6.11988 9.4193 6.75848 9.57895L8.19532 9.7386C8.08889 9.84503 7.92924 9.89825 7.82281 9.95146C7.66316 10.0579 7.60994 10.1111 7.50351 10.2175C7.29064 10.4304 7.18421 10.7497 7.34386 11.069L8.99357 11.814C8.88713 11.9737 8.35497 12.3994 8.19532 12.5591C7.18421 13.2509 6.06667 13.7298 4.68304 13.783C3.67193 13.8363 2.71404 13.6234 1.91579 13.3041C1.06433 13.038 0.691813 12.7187 0 12.1865C0.212866 12.5058 0.638597 12.9848 0.904678 13.3041C3.51228 16.0713 7.71637 17.5614 12.0801 16.8164C14.7409 16.3374 16.4971 15.4327 18.0404 14.262C18.3064 14.0491 18.8918 13.517 19.1579 13.3041C19.8497 12.6123 20.4351 11.8673 20.914 10.9626C21.0737 10.6965 21.4994 9.79181 21.4994 9.52573Z" fill="white"/>
</svg>
