<svg width="23" height="13" viewBox="0 0 23 13" fill="none" xmlns="http://www.w3.org/2000/svg">
<path fill-rule="evenodd" clip-rule="evenodd" d="M18.8386 7.98246C20.169 9.20643 21.1269 10.2175 21.6591 11.0158C21.9251 11.3883 21.9784 11.7608 21.9251 12.0801C21.8187 12.3994 21.6058 12.5591 21.2865 12.5591L17.7743 12.7187C17.2953 12.7719 16.6567 12.4526 15.9649 11.814C15.2731 11.1754 14.7942 10.6433 14.5281 10.2175C14.3684 9.95146 14.1023 9.84503 13.7298 9.79181C13.3573 9.7386 13.0912 9.95146 12.9848 10.324L12.8784 11.7076C12.8251 11.9737 12.7187 12.1865 12.5591 12.3462C12.3994 12.5058 12.2398 12.5591 12.0801 12.6123C11.9737 12.6123 11.7608 12.6655 11.4415 12.7187C10.5368 12.7719 9.68538 12.7187 8.99357 12.5591C8.30175 12.4526 7.66316 12.1866 7.07778 11.7608C6.4924 11.3883 6.06667 11.0158 5.69415 10.6965C5.53451 10.324 5.05556 9.79181 4.41696 9.1C2.66082 6.59883 1.38363 4.47018 0.532164 2.66082C0.212865 1.96901 0.0532164 1.33041 0 0.851462C0.159649 0.691813 0.425731 0.638596 0.798246 0.58538C1.17076 0.532164 1.75614 0.532164 2.50117 0.532164C3.2462 0.532164 3.67193 0.58538 3.83158 0.58538C4.2041 0.532164 4.47018 0.745029 4.68304 1.17076C5.58772 3.13977 6.43918 4.68304 7.29065 5.80058C7.87603 6.33275 8.24854 6.22632 8.40819 5.5345C8.4614 5.5345 8.51462 4.68304 8.51462 2.9269C8.56784 1.80936 8.08889 1.11754 7.18421 0.851462C7.39708 0.266082 8.14211 0 9.4193 0C9.7386 0 10.1111 -5.15441e-08 10.5901 0.0532163C11.069 0.106433 11.2819 0.106433 11.3351 0.106433C12.3994 0.106433 12.9316 0.532164 12.9316 1.38363C12.9316 1.49006 12.9316 1.75614 12.8784 2.18187C12.8251 2.6076 12.8251 2.98012 12.7719 3.35263C12.7719 3.72515 12.7187 4.09766 12.7187 4.52339C12.7187 4.94912 12.7719 5.26842 12.8784 5.58772C12.9848 5.8538 13.1444 6.06667 13.3041 6.11988C13.517 5.96023 13.6766 5.8538 13.8895 5.69415C14.0491 5.58772 14.262 5.37485 14.4749 5.05556C14.6877 4.78947 14.8474 4.57661 14.9538 4.41696C15.0602 4.25731 15.2199 3.99123 15.4327 3.61871C15.6456 3.2462 15.752 2.98012 15.8053 2.87368C15.8585 2.76725 15.9649 2.50117 16.1778 2.02222C16.3906 1.59649 16.4971 1.33041 16.4971 1.33041L16.5503 1.17076C16.7099 0.851462 16.8164 0.638596 16.9228 0.58538C17.0292 0.532164 17.2421 0.478947 17.6146 0.478947H20.914C21.2866 0.478947 21.5526 0.478947 21.6058 0.532164C21.6591 0.532164 21.7655 0.638596 21.9251 0.798246C22.1912 1.11754 21.9784 1.80936 21.2333 2.87368C20.5415 3.93801 19.8497 4.84269 19.2111 5.5345C18.3596 6.54561 18.2 7.39708 18.8386 7.98246Z" fill="white"/>
</svg>
