<svg width="21" height="21" viewBox="0 0 21 21" fill="none" xmlns="http://www.w3.org/2000/svg">
<path d="M15.6592 14.1246C15.4414 14.7317 14.3978 15.2861 13.8958 15.361C13.4456 15.4278 12.8762 15.4557 12.2503 15.258C11.8707 15.138 11.3842 14.978 10.7607 14.7102C8.31211 13.6579 6.65711 11.2962 6.34375 10.849C6.32171 10.8176 6.30633 10.7956 6.29774 10.7842L6.29541 10.7811C6.15641 10.5965 5.23094 9.36691 5.23094 8.09434C5.23094 6.89645 5.82243 6.26853 6.09437 5.97983C6.11292 5.96013 6.12998 5.942 6.14529 5.92539C6.38491 5.66506 6.66803 5.60005 6.84213 5.60005C6.9304 5.60005 7.01881 5.60045 7.10437 5.60182C7.18741 5.60315 7.26773 5.60539 7.3427 5.60906C7.3615 5.60999 7.38108 5.60988 7.40131 5.60975C7.55363 5.60883 7.74343 5.60769 7.93051 6.05544C8.00257 6.22776 8.10803 6.4832 8.21925 6.75258L8.22002 6.75427C8.44459 7.29841 8.69248 7.89889 8.73611 7.98579C8.80138 8.1161 8.84487 8.2679 8.75795 8.44146C8.67077 8.61502 8.38126 8.98947 8.10487 9.33074L8.08961 9.34931C8.08244 9.35793 8.07514 9.36652 8.06784 9.37511C7.96063 9.50177 7.85361 9.6283 7.99022 9.86149C8.14241 10.1216 8.66702 10.9732 9.44354 11.6626C10.278 12.4033 11.0033 12.7165 11.3713 12.8754L11.3734 12.8764C11.3999 12.8878 11.4246 12.8985 11.4472 12.9084C11.4854 12.9251 11.5181 12.9399 11.5447 12.9532C11.8056 13.0832 11.9582 13.0615 12.1106 12.8882C12.2628 12.7146 12.7637 12.1289 12.9378 11.8686C13.1119 11.6082 13.2862 11.6518 13.5256 11.7385C13.7652 11.825 15.0495 12.4543 15.3108 12.5843C15.362 12.6098 15.4098 12.6328 15.4542 12.6542C15.6361 12.7417 15.7589 12.8009 15.8114 12.8882C15.877 12.9967 15.877 13.5171 15.6592 14.1246Z" fill="#61C100"/>
<path fill-rule="evenodd" clip-rule="evenodd" d="M10.544 20.8195H10.5397C8.78968 20.8187 7.07005 20.3819 5.54281 19.5529L0 21L1.48349 15.6075C0.568362 14.0295 0.0869184 12.2393 0.0876939 10.4053C0.0901496 4.66776 4.78071 0 10.544 0C13.3408 0.00106152 15.9663 1.08487 17.9403 3.0516C19.9145 5.0186 21.001 7.63311 21 10.4135C20.9976 16.1513 16.3065 20.8195 10.544 20.8195ZM10.5474 1.75761C5.75367 1.75761 1.85508 5.6372 1.85294 10.4061C1.85243 12.0403 2.31196 13.6317 3.18179 15.0088L3.3884 15.336L2.51029 18.5277L5.79956 17.669L6.11705 17.8563C7.4512 18.6445 8.98077 19.0614 10.5403 19.0619H10.5437C15.3337 19.0619 19.2324 15.1821 19.2344 10.413C19.2353 8.10177 18.3321 5.92885 16.6914 4.29411C15.0506 2.65937 12.8684 1.75842 10.5474 1.75761Z" fill="#61C100"/>
</svg>
