<svg width="19" height="14" viewBox="0 0 19 14" fill="none" xmlns="http://www.w3.org/2000/svg">
<path fill-rule="evenodd" clip-rule="evenodd" d="M17.894 2.34152C17.7344 1.33041 17.0425 0.532164 16.0847 0.372515C15.6589 0.319298 15.2332 0.319298 14.7542 0.266082C12.8385 0.159649 10.9759 0.106433 8.95366 0C6.82501 0.106433 4.58991 0.212865 2.35482 0.319298C1.34371 0.372515 0.492254 1.17076 0.332605 2.18187C0.172956 3.35263 0.0665202 4.47018 0.0133039 5.64094C-0.0399125 7.34386 0.0665235 9.1 0.332605 10.8029C0.492254 11.814 1.39693 12.6655 2.35482 12.7187C3.95131 12.8251 5.4946 12.8784 7.09109 12.9848C9.75191 13.0912 12.4127 12.9848 15.0735 12.8251C15.3928 12.8251 15.7654 12.8251 16.0847 12.7187C16.9893 12.5591 17.7344 11.7076 17.894 10.8029C18.1069 9.52573 18.1601 8.24854 18.2133 6.97135C18.2133 5.42807 18.1069 3.8848 17.894 2.34152ZM7.03787 9.1C7.03787 7.34386 7.03787 5.58772 7.03787 3.83158C8.68758 4.73626 10.2841 5.58772 11.9338 6.4924C10.3373 7.34386 8.68758 8.24854 7.03787 9.1Z" fill="white"/>
</svg>
