<svg width="16" height="15" viewBox="0 0 16 15" fill="none" xmlns="http://www.w3.org/2000/svg">
<path d="M10.1114 2.3005C10.0704 2.25941 10.0293 2.25941 9.94712 2.25941C9.90604 2.25941 9.82388 2.25941 9.7828 2.3005L2.38835 9.69495C2.30619 9.77711 2.30619 9.90035 2.38835 9.98251L3.33319 10.9274L11.0563 3.24534L10.1114 2.3005ZM5.42829 5.25828L1.93646 1.76645C1.8543 1.68429 1.73106 1.68429 1.6489 1.76645L0.0878478 3.3275C-0.0353932 3.45074 -0.0353932 3.69723 0.128928 3.86155L3.45643 7.18905L5.42829 5.25828ZM12.7406 4.92964L11.7957 3.98479L4.11372 11.6257L5.05857 12.5706C5.09965 12.6117 5.14073 12.6117 5.22289 12.6117C5.30505 12.6117 5.34613 12.6117 5.38721 12.5706L12.7817 5.17612C12.8227 5.13504 12.8227 5.0118 12.7406 4.92964ZM13.2746 13.1046L9.7828 9.61279L7.85203 11.5436L11.1795 14.8711C11.3439 15.0354 11.5903 15.0354 11.7136 14.9122L13.2746 13.3511C13.3568 13.31 13.3568 13.1868 13.2746 13.1046Z" fill="#61C100"/>
<path d="M3.04563 0.369723L2.63483 0.739446C2.59375 0.821606 2.59375 0.944847 2.63483 1.02701L6.12665 4.51884L6.94826 3.69723L3.62075 0.369723C3.45643 0.205402 3.20995 0.205402 3.04563 0.369723ZM1.81322 10.8041C1.68998 10.6809 1.52566 10.722 1.48458 10.8863L0.293248 14.5014C0.252167 14.6657 0.375408 14.83 0.539729 14.7478L4.1548 13.5565C4.31912 13.5154 4.3602 13.31 4.23696 13.2279L1.81322 10.8041ZM14.7946 1.97186L13.0692 0.246482C12.7406 -0.0821606 12.2476 -0.0821606 11.919 0.246482L10.6866 1.43781C10.7276 1.47889 10.8098 1.51997 10.8509 1.56105L13.48 4.19019C13.5211 4.23127 13.5622 4.31343 13.6033 4.35451L14.7946 3.16318C15.1232 2.83454 15.1232 2.3005 14.7946 1.97186ZM11.3028 8.05174L10.4812 8.87335L13.973 12.3652C14.0552 12.4473 14.1784 12.4473 14.2606 12.3652L14.6303 11.9955C14.7946 11.8311 14.7946 11.5846 14.6303 11.4203L11.3028 8.05174Z" fill="#61C100"/>
</svg>
